<?xml version="1.0" encoding="iso-8859-1"?>
<!-- Uploaded to: SVG Repo, www.svgrepo.com, Generator: SVG Repo Mixer Tools -->
<!DOCTYPE svg PUBLIC "-//W3C//DTD SVG 1.1//EN" "http://www.w3.org/Graphics/SVG/1.1/DTD/svg11.dtd">
<svg version="1.1" id="Capa_1" xmlns="http://www.w3.org/2000/svg" xmlns:xlink="http://www.w3.org/1999/xlink" 
	 viewBox="0 0 512.001 512.001" xml:space="preserve">
<g>
	<path style="fill:#FFFFFF;" d="M416.001,83.715c3.281,0,6.367,1.277,8.688,3.598c2.32,2.32,3.594,5.406,3.594,8.688
		c0,3.281-1.274,6.367-3.594,8.688l-4.688,4.688l-17.375-17.375l4.688-4.688C409.634,84.993,412.72,83.715,416.001,83.715z"/>
	
		<rect x="367.715" y="119.715" transform="matrix(0.7071 0.7071 -0.7071 0.7071 204.6383 -230.0394)" style="fill:#FFFFFF;" width="24.572" height="24.572"/>
	
		<rect x="327.715" y="159.715" transform="matrix(0.7071 0.7071 -0.7071 0.7071 221.2069 -190.0394)" style="fill:#FFFFFF;" width="24.572" height="24.572"/>
	<path style="fill:#FFFFFF;" d="M295.314,216.688c-2.32-2.32-3.594-5.406-3.594-8.688c0-3.281,1.273-6.367,3.594-8.688l4.688-4.688
		l17.375,17.375l-4.688,4.688C308.048,221.329,299.954,221.329,295.314,216.688z"/>
	<path style="fill:#003B54;" d="M507.314,4.688c-6.25-6.25-16.375-6.25-22.625,0l-50.883,50.883
		c-16.228-7.121-35.852-4.15-49.117,9.117l-112,112c-13.266,13.267-16.238,32.888-9.117,49.117l-53.633,53.634l-88.609-7.384
		c-4.758-0.395-9.32,1.301-12.641,4.633l-104,104c-4.211,4.207-5.734,10.402-3.961,16.082c1.773,5.68,6.555,9.906,12.414,10.973
		l57.955,10.537l-2.408,2.408c-6.25,6.246-6.25,16.379,0,22.625c3.125,3.125,7.219,4.688,11.313,4.688
		c4.094,0,8.188-1.563,11.313-4.688l2.406-2.407l10.539,57.958c1.063,5.855,5.289,10.633,10.969,12.41
		c1.57,0.488,3.18,0.727,4.773,0.727c4.18,0,8.266-1.641,11.313-4.688l104-104c3.328-3.328,5.023-7.949,4.633-12.641l-7.383-88.608
		l53.633-53.634c5.668,2.487,11.715,3.832,17.805,3.832c11.344,0,22.68-4.316,31.313-12.949l112-112
		c13.266-13.267,16.238-32.888,9.117-49.117l50.883-50.883C513.564,21.067,513.564,10.934,507.314,4.688z M416.001,83.715
		c3.281,0,6.367,1.277,8.688,3.598c2.32,2.32,3.594,5.406,3.594,8.688c0,3.281-1.274,6.367-3.594,8.688l-4.688,4.688l-17.375-17.375
		l4.688-4.688C409.634,84.993,412.72,83.715,416.001,83.715z M380.001,149.376l-17.375-17.375l17.375-17.375l17.375,17.375
		L380.001,149.376z M340.001,189.376l-17.375-17.375l17.375-17.375l17.375,17.375L340.001,189.376z M126.064,304.563l54.227,4.516
		l-81.672,81.68l-49.711-9.035L126.064,304.563z M130.283,463.094l-9.039-49.707l81.68-81.68l4.516,54.227L130.283,463.094z
		 M295.314,216.688c-2.32-2.32-3.594-5.406-3.594-8.688c0-3.281,1.273-6.367,3.594-8.688l4.688-4.688l17.375,17.375l-4.688,4.688
		C308.048,221.329,299.954,221.329,295.314,216.688z"/>
	<polygon style="fill:#6EBF5D;" points="130.283,463.094 207.439,385.934 202.923,331.708 121.243,413.387 	"/>
	<polygon style="fill:#6EBF5D;" points="98.618,390.758 180.29,309.079 126.064,304.563 48.908,381.723 	"/>
</g>
</svg>