<?xml version="1.0" encoding="iso-8859-1"?>
<!-- Uploaded to: SVG Repo, www.svgrepo.com, Generator: SVG Repo Mixer Tools -->
<svg height="800px" width="800px" version="1.1" id="Layer_1" xmlns="http://www.w3.org/2000/svg" xmlns:xlink="http://www.w3.org/1999/xlink" 
	 viewBox="0 0 392.493 392.493" xml:space="preserve">
<polygon style="fill:#FFC10D;" points="186.969,181.578 81.789,286.758 77.975,314.556 105.773,310.741 210.952,205.626 "/>
<path style="fill:#56ACE0;" d="M356.213,106.782c-9.826-11.507-30.578-16.743-44.412-13.188
	c-7.111,1.681-14.352-6.335-12.929-12.929c3.426-16.162-1.552-32.776-13.188-44.412c-18.554-19.071-48.42-19.846-68.848,0
	c-5.301,5.301-9.826,14.158-13.382,25.859h26.053c6.012,0,10.925,4.848,10.925,10.925c0,6.012-4.848,10.925-10.925,10.925H198.54
	c-1.164,6.723-2.069,13.964-2.844,21.786h12.154c6.012,0,10.925,4.848,10.925,10.925c0,6.012-4.848,10.925-10.925,10.925h-13.576
	c-0.388,9.503-0.517,19.523-0.453,30.125c0.323,0.259,40.598,40.598,40.727,40.727c1.293,0,2.715,0,4.008,0
	c60.251,0,103.176-8.339,117.592-22.82C376.577,154.749,373.021,122.232,356.213,106.782z"/>
<path style="fill:#194F82;" d="M371.599,91.396c-13.317-13.317-30.966-20.622-49.778-20.622h-0.065
	c0-18.554-7.24-36.461-20.622-49.842c-29.156-30.125-74.473-25.6-99.685,0c-26.053,26.053-30.448,91.927-29.285,144.549
	L63.752,273.893c-1.681,1.681-2.78,3.879-3.103,6.271l-5.624,41.956L3.243,373.901c-4.202,4.267-4.202,11.119,0,15.386
	c4.784,4.655,11.766,3.879,15.386,0l51.782-51.782l41.956-5.624c2.392-0.323,4.59-1.422,6.271-3.103l108.671-108.671
	c3.62,0.065,7.434,0.065,11.313,0.065l0,0c68.913,0,113.648-9.826,132.978-29.22C398.686,163.8,399.979,119.453,371.599,91.396z
	 M77.975,314.556l3.814-27.798l105.18-105.18l24.048,24.048L105.773,310.741L77.975,314.556z M234.613,198.386
	c-0.129-0.129-40.469-40.469-40.727-40.727c-0.065-10.602,0.065-20.622,0.453-30.125h13.446c6.012,0,10.925-4.848,10.925-10.925
	c0-6.012-4.848-10.925-10.925-10.925H195.76c0.776-7.822,1.681-15.063,2.844-21.786h30.966c6.012,0,10.925-4.848,10.925-10.925
	c0-6.012-4.848-10.925-10.925-10.925h-26.053c3.556-11.766,8.016-20.558,13.382-25.859c20.428-19.846,50.36-19.071,68.848,0
	c11.636,11.636,16.549,28.186,13.188,44.412c-1.487,6.594,5.818,14.61,12.929,12.929c13.834-3.556,34.586,1.681,44.412,13.188
	c16.743,15.451,20.299,47.903,0,68.848c-14.481,14.481-57.341,22.82-117.592,22.82C237.263,198.386,235.906,198.386,234.613,198.386
	z"/>
</svg>