<?xml version="1.0" encoding="iso-8859-1"?>
<!-- Uploaded to: SVG Repo, www.svgrepo.com, Generator: SVG Repo Mixer Tools -->
<svg height="800px" width="800px" version="1.1" id="Layer_1" xmlns="http://www.w3.org/2000/svg" xmlns:xlink="http://www.w3.org/1999/xlink" 
	 viewBox="0 0 512 512" xml:space="preserve">
<path style="fill:#FFD782;" d="M100.687,100.687l262.059,352.568c24.994,24.993,65.516,24.993,90.51,0s24.994-65.517,0-90.51
	L100.687,100.687z"/>
<path style="fill:#C7CFE2;" d="M453.255,362.745l-18.889-14.04l-85.27,86.187l13.649,18.363c24.994,24.993,65.516,24.993,90.51,0
	S478.249,387.738,453.255,362.745z"/>
<path style="fill:#AFB9D2;" d="M453.255,362.745l-18.889-14.04l-85.27,86.187l13.649,18.363c1.349,1.349,2.751,2.61,4.186,3.813
	l90.138-90.137C455.865,365.496,454.604,364.094,453.255,362.745z"/>
<g>
	<path style="fill:#FF6464;" d="M127.999,136H8l94.505,94.505c6.08,6.079,14.325,9.495,22.923,9.495H204L127.999,136z"/>
	<path style="fill:#FF6464;" d="M240,204v-78.571c0-8.599-3.416-16.845-9.495-22.924L136,8v119.999L240,204z"/>
</g>
<path style="fill:#2D2B29;" d="M509.657,498.343l-45.408-45.408C474.448,440.218,480,424.539,480,408
	c0-19.232-7.489-37.313-21.088-50.912c-0.276-0.275-0.571-0.53-0.884-0.764L247.989,200.206c0.002-0.069,0.011-0.137,0.011-0.207
	v-74.57c0-10.797-4.204-20.947-11.838-28.581L141.657,2.343c-2.287-2.287-5.728-2.972-8.718-1.733C129.949,1.848,128,4.765,128,8
	v103.02l-22.541-16.754c-3.185-2.365-7.623-2.041-10.429,0.764c-2.806,2.807-3.131,7.245-0.764,10.43L111.021,128H8
	c-3.236,0-6.153,1.949-7.391,4.938s-0.554,6.431,1.734,8.719l94.505,94.505c7.635,7.634,17.785,11.838,28.58,11.838h74.571
	c0.07,0,0.138-0.009,0.208-0.011l156.118,210.038c0.232,0.313,0.488,0.608,0.764,0.885c14.036,14.036,32.474,21.054,50.912,21.054
	c15.925,0,31.844-5.247,44.933-15.719l45.41,45.41c1.562,1.562,3.609,2.343,5.657,2.343s4.095-0.781,5.657-2.343
	C512.781,506.532,512.781,501.468,509.657,498.343z M144,27.313l80.848,80.849c4.612,4.611,7.152,10.743,7.152,17.267v62.893
	l-88-65.409L144,27.313L144,27.313z M125.428,232c-6.522,0-12.654-2.54-17.267-7.152L27.314,144h95.599l65.409,88H125.428z
	 M368.805,447.997l-9.162-12.326l46.014-46.014c3.125-3.125,3.125-8.189,0-11.314c-3.124-3.123-8.189-3.123-11.313,0l-44.348,44.349
	l-210.48-283.177l283.176,210.48l-4.348,4.348c-3.125,3.125-3.125,8.189,0,11.314c1.562,1.562,3.609,2.343,5.657,2.343
	s4.095-0.781,5.657-2.343l6.014-6.015l12.326,9.162C458.322,379.335,464,393.23,464,408c0,14.958-5.825,29.021-16.402,39.598
	C425.896,469.298,390.671,469.433,368.805,447.997z"/>
</svg>