<?xml version="1.0" encoding="iso-8859-1"?>
<!-- Uploaded to: SVG Repo, www.svgrepo.com, Generator: SVG Repo Mixer Tools -->
<svg version="1.1" id="Capa_1" xmlns="http://www.w3.org/2000/svg" xmlns:xlink="http://www.w3.org/1999/xlink" 
	 viewBox="0 0 55.429 55.429" xml:space="preserve">
<polygon style="fill:#26B99A;" points="38.194,19.956 48.172,22.678 55.429,15.421 50.893,7.257 "/>
<polygon style="fill:#14A085;" points="35.472,17.235 32.751,7.257 40.008,0 48.172,4.536 "/>
<path style="fill:#BAD4E2;" d="M30.483,24.945c0.512,0.512,0.802,1.158,0.893,1.828L50.893,7.257
	c0.718-0.808,0.762-1.955-0.002-2.719c-0.764-0.764-1.911-0.72-2.719-0.002L28.656,24.052
	C29.325,24.144,29.972,24.434,30.483,24.945z"/>
<path style="fill:#ECF0F1;" d="M11.027,45.402l-1-1c-0.972-0.972-0.972-2.563,0-3.536l16.421-16.421
	c0.972-0.972,2.563-0.972,3.536,0l1,1c0.972,0.972,0.972,2.563,0,3.536L14.563,45.402C13.59,46.374,11.999,46.374,11.027,45.402z"/>
<g>
	
		<rect x="11.599" y="39.623" transform="matrix(-0.7071 -0.7071 0.7071 -0.7071 -3.4469 79.818)" style="fill:#BDC3C7;" width="6.415" height="2"/>
	
		<rect x="15.028" y="36.194" transform="matrix(-0.7071 -0.7071 0.7071 -0.7071 4.8311 76.3882)" style="fill:#BDC3C7;" width="6.415" height="2"/>
	
		<rect x="18.656" y="32.565" transform="matrix(-0.7071 -0.7071 0.7071 -0.7071 13.5867 72.7586)" style="fill:#BDC3C7;" width="6.414" height="2"/>
	
		<rect x="24.492" y="26.729" transform="matrix(0.7071 -0.7071 0.7071 0.7071 -13.7022 26.7936)" style="fill:#BDC3C7;" width="2" height="6.415"/>
</g>
<path style="fill:#BDC3C7;" d="M11.027,45.402l-1-1c-0.071-0.071-0.125-0.151-0.186-0.228l-9.548,9.548
	c-0.391,0.391-0.391,1.023,0,1.414C0.488,55.331,0.744,55.429,1,55.429s0.512-0.098,0.707-0.293l9.548-9.548
	C11.178,45.527,11.098,45.473,11.027,45.402z"/>
</svg>